<?xml version="1.0" encoding="UTF-8" standalone="no"?><!DOCTYPE svg PUBLIC "-//W3C//DTD SVG 1.1//EN" "http://www.w3.org/Graphics/SVG/1.1/DTD/svg11.dtd"><svg width="100%" height="100%" viewBox="0 0 800 800" version="1.1" xmlns="http://www.w3.org/2000/svg" xmlns:xlink="http://www.w3.org/1999/xlink" xml:space="preserve" xmlns:serif="http://www.serif.com/" style="fill-rule:evenodd;clip-rule:evenodd;stroke-linejoin:round;stroke-miterlimit:2;"><g><path d="M791.776,662.511l-338.632,-586.398c-10.962,-18.985 -31.219,-30.678 -53.144,-30.678c-21.922,-0 -42.182,11.691 -53.144,30.678l-338.632,586.398c-10.967,18.985 -10.967,42.383 -0.005,61.371c10.963,18.988 31.222,30.686 53.15,30.686l677.262,-0c21.925,-0 42.187,-11.696 53.15,-30.686c10.96,-18.988 10.96,-42.386 -0.005,-61.371Z" style="fill:#ff0;"/><path d="M791.776,662.511l-338.632,-586.398c-10.962,-18.985 -31.219,-30.678 -53.144,-30.678c-21.922,-0 -42.182,11.691 -53.144,30.678l-338.632,586.398c-10.967,18.985 -10.967,42.383 -0.005,61.371c10.963,18.988 31.222,30.686 53.15,30.686l677.262,-0c21.925,-0 42.187,-11.696 53.15,-30.686c10.96,-18.988 10.96,-42.386 -0.005,-61.371Zm-730.407,30.688l338.631,-586.398l338.631,586.398l-677.262,-0Z" style="fill-rule:nonzero;"/><path d="M357.519,318.073l17.599,201.48c1.027,11.86 10.441,21.636 22.709,22.709c13.742,1.201 25.855,-8.968 27.055,-22.709l17.599,-201.48c0.189,-2.355 0.213,-4.993 -0,-7.421c-2.049,-23.464 -22.729,-40.82 -46.19,-38.774c-23.462,2.052 -40.82,22.736 -38.772,46.195Z" style="fill-rule:nonzero;"/><circle cx="400" cy="589.949" r="35.198"/></g></svg>