<?xml version="1.0" encoding="UTF-8" standalone="no"?>
<!DOCTYPE svg PUBLIC "-//W3C//DTD SVG 1.1//EN" "http://www.w3.org/Graphics/SVG/1.1/DTD/svg11.dtd">
<svg width="100%" height="100%" viewBox="0 0 800 800" version="1.1" xmlns="http://www.w3.org/2000/svg" xmlns:xlink="http://www.w3.org/1999/xlink" xml:space="preserve" xmlns:serif="http://www.serif.com/" style="fill-rule:evenodd;clip-rule:evenodd;stroke-linejoin:round;stroke-miterlimit:2;">
    <g transform="matrix(0.585,0,0,0.585,54,79)">
        <path d="M192,0C87,0 48,34.688 48,128L48,656C48,677.75 54.375,693.438 64,705L64,752C64,778.438 85.562,800 112,800L176,800C202.438,800 224,778.438 224,752L224,736L576,736L576,752C576,778.438 597.562,800 624,800L688,800C714.438,800 736,778.438 736,752L736,705C745.625,693.438 752,677.75 752,656L752,144C752,74.312 743.375,0 640,0L192,0ZM240,64L576,64C584.875,64 592,71.188 592,80L592,112C592,120.812 584.875,128 576,128L240,128C231.188,128 224,120.812 224,112L224,80C224,71.188 231.188,64 240,64ZM176,176L624,176C656,176 672,192 672,224L672,416C672,448 640.75,463 624,463L176,464C144,464 128,448 128,416L128,224C128,192 144,176 176,176ZM32,192C14.375,192 0,206.375 0,224L0,352C0,369.625 14.375,384 32,384L32,192ZM768,192L768,384C785.688,384 800,369.625 800,352L800,224C800,206.375 785.688,192 768,192ZM184,544C214.938,544 240,569.062 240,600C240,630.938 214.938,656 184,656C153.062,656 128,630.938 128,600C128,569.062 153.062,544 184,544ZM616,544C646.938,544 672,569.062 672,600C672,630.938 646.938,656 616,656C585.062,656 560,630.938 560,600C560,569.062 585.062,544 616,544Z" style="fill:rgb(0,94,173);fill-rule:nonzero;"/>
    </g>
    <g transform="matrix(1.21547,0,0,1.21547,-86.0221,-18.8232)">
        <path d="M563.853,635C563.853,635 686.705,467.597 686.705,395.853C686.705,328.048 631.657,273 563.853,273C496.048,273 441,328.048 441,395.853C441,467.597 563.853,635 563.853,635ZM563.853,317C596.968,317 623.853,343.885 623.853,377C623.853,410.115 596.968,437 563.853,437C530.738,437 503.853,410.115 503.853,377C503.853,343.885 530.738,317 563.853,317Z" style="fill:rgb(255,0,0);"/>
    </g>
</svg>
