<?xml version="1.0" encoding="UTF-8"?>
<svg version="1.1" xmlns="http://www.w3.org/2000/svg" width="512" height="512">
<path d="M0 0 C2.22481597 1.72820192 4.18765604 3.64473394 6.16096973 5.65201855 C7.01427778 6.49570716 7.01427778 6.49570716 7.88482437 7.35643998 C9.78138012 9.23644307 11.66344835 11.13029536 13.54585266 13.02445984 C14.91921244 14.39177609 16.29343837 15.75822281 17.66845292 17.12387496 C21.43895013 20.87380145 25.19687816 24.63610654 28.95282042 28.40060365 C33.00767161 32.46038726 37.07397777 36.50866988 41.13877869 40.55848694 C49.09768449 48.49189 57.04559397 56.43622183 64.98941646 64.38472524 C71.44530026 70.84417426 77.90470428 77.30008254 84.36662865 83.75348854 C85.28609849 84.67176801 86.20556833 85.59004747 87.1529009 86.53615359 C89.02075305 88.40158226 90.88860759 90.26700853 92.7564645 92.13243244 C105.29749954 104.65789298 117.83466194 117.18721733 130.36388874 129.72449017 C130.85369456 130.21460874 131.34350039 130.70472732 131.84814881 131.20969797 C134.33060468 133.69376538 136.81302053 136.17787277 139.29542039 138.66199615 C139.78842404 139.15534198 140.2814277 139.64868782 140.78937087 140.15698352 C141.78634232 141.15464829 142.7833119 142.15231493 143.78027961 143.14998344 C159.29698306 158.67740389 174.82692438 174.19147289 190.36743164 189.69506836 C207.83125523 207.11746032 225.28502322 224.54983485 242.72415608 241.99694377 C251.95673414 251.23334968 261.19368255 260.46528174 270.44228554 269.68564415 C278.31436918 277.53393335 286.17591203 285.39259611 294.02397213 293.26491108 C298.02893927 297.28167823 302.03859612 301.29344952 306.06141281 305.29234695 C309.74364511 308.95293851 313.41175672 312.62708758 317.06909194 316.31254945 C318.39475124 317.64352385 319.72550016 318.96945223 321.06177882 320.28976461 C334.90027029 333.97431835 334.90027029 333.97431835 335.03477174 343.44957274 C334.78028794 349.30447195 332.76181013 353.33217817 328.5078125 357.44140625 C324.13853487 361.25637254 320.93930011 362.17532144 315.25 362.3125 C314.24453125 362.34988281 313.2390625 362.38726562 312.203125 362.42578125 C303.74696316 361.30173047 298.60510963 354.89073051 293.01596451 348.9969368 C291.54457023 347.44948968 290.06013696 345.91573014 288.5710144 344.38534546 C284.34203517 340.03794909 280.12357669 335.68126104 275.94775391 331.28271484 C273.3828523 328.58297813 270.79172607 325.9109666 268.18169785 323.25486374 C267.19629103 322.24166856 266.22104823 321.21848105 265.25662613 320.18529129 C260.28116792 314.40195364 260.28116792 314.40195364 253.51499939 311.80172729 C251.17276341 312.30232855 249.18177766 313.02283304 247 314 C246.08130127 314.2357373 245.16260254 314.47147461 244.21606445 314.71435547 C243.439646 314.92979004 242.66322754 315.14522461 241.86328125 315.3671875 C166.21870447 335.98019852 89.32474829 325.25967654 21.1171875 286.96484375 C14.16154817 282.98013539 7.5206821 278.65763007 1 274 C-0.10722412 273.21520264 -0.10722412 273.21520264 -1.23681641 272.41455078 C-12.34638667 264.50523068 -22.92148423 256.18686477 -33 247 C-34.03181396 246.06075684 -34.03181396 246.06075684 -35.08447266 245.10253906 C-37.23106438 243.13941256 -39.36791039 241.16636188 -41.5 239.1875 C-42.14670654 238.58945557 -42.79341309 237.99141113 -43.4597168 237.37524414 C-47.36660313 233.70529222 -50.95955965 229.8688588 -54.45019531 225.80151367 C-56.28576065 223.667828 -58.20416695 221.61942446 -60.125 219.5625 C-70.01284514 208.59475369 -79.03201306 196.43280721 -87 184 C-87.474375 183.27296875 -87.94875 182.5459375 -88.4375 181.796875 C-92.69840217 174.04440022 -92.15818925 163.62220346 -90.41015625 155.13671875 C-87.7618627 147.68000281 -82.67774547 141.30293847 -78 135 C-77.22398438 133.94683594 -76.44796875 132.89367187 -75.6484375 131.80859375 C-66.90529921 120.20328804 -57.48509003 109.07120489 -47 99 C-44.40349776 96.42063639 -41.82825898 93.82383013 -39.2734375 91.203125 C-29.53612028 81.24461937 -18.85893091 72.80451283 -7.74926758 64.42797852 C-7.04825928 63.89744873 -6.34725098 63.36691895 -5.625 62.8203125 C-4.99851562 62.34867676 -4.37203125 61.87704102 -3.7265625 61.39111328 C-2.02737435 60.02205586 -0.52993228 58.55297384 1 57 C0.10692139 56.13310547 -0.78615723 55.26621094 -1.70629883 54.37304688 C-5.0345582 51.13568171 -8.34591954 47.88147354 -11.65258789 44.62207031 C-13.08264335 43.21706951 -14.51716603 41.81659994 -15.95629883 40.42089844 C-18.03113242 38.40711049 -20.08904375 36.37725862 -22.14453125 34.34375 C-22.78526077 33.7288269 -23.4259903 33.11390381 -24.08613586 32.48034668 C-28.83380505 27.73566383 -31.67133245 23.16511416 -32.21484375 16.27734375 C-31.46121416 9.91925746 -30.29262865 4.94805124 -25.3203125 0.49609375 C-16.98156005 -5.78481206 -8.67663925 -5.28748429 0 0 Z M67 123 C55.81541236 145.76862484 54.50029981 173.94159053 62.25390625 198.00390625 C68.44144364 216.06048253 78.40743907 233.41318947 93 246 C93.87398437 246.75410156 94.74796875 247.50820313 95.6484375 248.28515625 C108.90206337 259.2706669 124.33101819 266.85537803 141 271 C141.92941406 271.24363281 142.85882813 271.48726562 143.81640625 271.73828125 C165.02243625 276.27581605 187.12443632 272.85705877 207 265 C207 257.70889667 196.30177137 249.5318974 191.37963867 244.50170898 C184.80600635 238.06096486 179.60926124 233.45080139 169.9699707 233.31323242 C165.85748131 233.63789427 161.79036817 234.11077528 157.71044922 234.71923828 C144.85031369 236.05135464 130.41002984 228.26164337 120.640625 220.38671875 C108.15859381 209.71425792 98.49308619 194.614817 96.07470703 178.12744141 C95.98341919 175.52782636 96.38024663 173.17068893 96.80859375 170.60546875 C98.41372774 159.4649769 98.41372774 159.4649769 94.77783203 149.08740234 C87.28124612 139.25745821 77.57910291 130.75791442 68 123 C67.67 123 67.34 123 67 123 Z M233 14 C233.88026855 14.21495117 234.76053711 14.42990234 235.66748047 14.65136719 C284.81761817 26.9549938 332.7875988 54.40779382 368.42871094 90.44018555 C370.20865132 92.20712761 372.07025217 93.83630837 374 95.4375 C377.35510997 98.3362636 380.24898599 101.41856451 383.109375 104.80078125 C385.21327602 107.2480876 387.41714264 109.58363917 389.625 111.9375 C396.26525748 119.22460143 402.14758386 127.07485315 408 135 C408.45890625 135.61762207 408.9178125 136.23524414 409.390625 136.87158203 C418.39425345 149.07190537 422.48021323 158.74601309 421 174 C419.14644616 182.77676156 413.24755241 189.92928611 408 197 C406.83597656 198.57974609 406.83597656 198.57974609 405.6484375 200.19140625 C401.07275585 206.2649902 396.27955738 212.11727401 391.3125 217.875 C390.79010742 218.48134277 390.26771484 219.08768555 389.72949219 219.71240234 C386.46169093 223.4556882 383.05515747 227.00490358 379.49853516 230.47509766 C377.8487911 232.09433935 377.8487911 232.09433935 376.0625 234.5 C373.74468092 237.30947767 371.20577212 239.51500921 368.4375 241.87109375 C366.1196995 243.89545476 363.88801523 245.99376065 361.65869141 248.11450195 C353.5988054 255.74168377 344.89530245 262.38429142 336 269 C334.49559601 270.12694002 332.99167426 271.25452414 331.48828125 272.3828125 C330.81966064 272.88441895 330.15104004 273.38602539 329.4621582 273.90283203 C328.979646 274.26489746 328.49713379 274.62696289 328 275 C323.8547844 273.35847729 321.03509789 270.35203629 317.93041992 267.26855469 C317.33326172 266.68293259 316.73610352 266.09731049 316.12084961 265.49394226 C314.15164188 263.55898712 312.190369 261.61625471 310.23046875 259.671875 C309.22461951 258.67638012 309.22461951 258.67638012 308.19845009 257.66077423 C304.65367771 254.15180333 301.1150651 250.63675239 297.58129883 247.11669922 C293.92649867 243.47849051 290.25122484 239.86171761 286.57085705 236.24940109 C283.74628021 233.46952182 280.93734546 230.67423355 278.13247108 227.87448883 C276.7838527 226.53378018 275.42934634 225.19896774 274.06896019 223.87020111 C272.17001396 222.0125312 270.29425377 220.13414028 268.42260742 218.24902344 C267.85490128 217.70334213 267.28719513 217.15766083 266.70228577 216.59544373 C265.16862488 215.02386475 265.16862488 215.02386475 263 212 C263.09101868 208.83843994 263.09101868 208.83843994 264 206 C264.36996094 204.79085937 264.73992187 203.58171875 265.12109375 202.3359375 C265.55942194 201.0154676 265.99824341 199.69516136 266.4375 198.375 C275.38349785 170.13189266 271.58919832 142.20695642 259.1875 115.75 C255.82543199 109.28852554 251.58722666 103.63814648 247 98 C246.31164062 97.14535156 245.62328125 96.29070312 244.9140625 95.41015625 C228.23998123 75.79176695 202.75242581 62.16549665 177 60 C158.94488678 58.88165162 141.99164277 60.11634154 125.26171875 67.36328125 C122.37480249 68.17600552 120.87183052 67.86521666 118 67 C115.72831726 65.22279358 115.72831726 65.22279358 113.39331055 62.87915039 C112.51277512 62.00476822 111.63223969 61.13038605 110.72502136 60.22950745 C109.77855604 59.26924946 108.83246386 58.30862357 107.88671875 57.34765625 C106.90810444 56.36665672 105.92874855 55.38639646 104.94868469 54.40684509 C102.90084649 52.35588372 100.85988886 50.29839277 98.82397461 48.2355957 C96.21015221 45.58770436 93.58326563 42.95326093 90.95160198 40.32311344 C88.93075874 38.30172739 86.91516192 36.27517931 84.90131569 34.24682426 C83.93403501 33.27316804 82.96552833 32.30072824 81.9957943 31.32951546 C80.64537858 29.97478004 79.30235256 28.61269043 77.9597168 27.25024414 C77.19314255 26.4760463 76.4265683 25.70184845 75.63676453 24.90419006 C74 23 74 23 74 21 C125.71029775 4.01357584 179.96111872 0.94341327 233 14 Z M206 108 C220.55945838 118.89328658 230.82044307 134.38265875 234.5390625 152.25390625 C235.66873196 161.434864 236.29652741 171.9620534 234 181 C230.94858607 179.63554199 228.84202098 178.09295263 226.48187256 175.73583984 C225.46392609 174.72635284 225.46392609 174.72635284 224.42541504 173.69647217 C223.69173706 172.95874573 222.95805908 172.22101929 222.20214844 171.4609375 C221.42127869 170.68357239 220.64040894 169.90620728 219.83587646 169.10528564 C217.25531995 166.53353454 214.68215078 163.95453325 212.109375 161.375 C210.32176507 159.58873678 208.53385829 157.80277058 206.7456665 156.01708984 C203.00003126 152.27440402 199.25794574 148.52821778 195.51855469 144.77929688 C191.19152584 140.4413683 186.85731751 136.11071321 182.51934028 131.78373528 C178.34795363 127.62250355 174.18218688 123.45568125 170.01880646 119.28643799 C168.24517078 117.51146411 166.47003715 115.73798581 164.69341278 113.96600342 C162.21750732 111.49514974 159.74805812 109.01802322 157.28027344 106.5390625 C156.53849854 105.80133606 155.79672363 105.06360962 155.0324707 104.30352783 C154.36511902 103.6305365 153.69776733 102.95754517 153.01019287 102.26416016 C152.42544064 101.67865387 151.8406884 101.09314758 151.2382164 100.48989868 C150 99 150 99 150 97 C168.97967209 92.24541819 190.0753676 97.12550947 206 108 Z " fill="#000000" transform="translate(91,90)"/>
</svg>
