<?xml version="1.0" encoding="UTF-8" standalone="no"?>
<!DOCTYPE svg PUBLIC "-//W3C//DTD SVG 1.1//EN" "http://www.w3.org/Graphics/SVG/1.1/DTD/svg11.dtd">
<svg width="100%" height="100%" viewBox="0 0 800 800" version="1.1" xmlns="http://www.w3.org/2000/svg" xmlns:xlink="http://www.w3.org/1999/xlink" xml:space="preserve" xmlns:serif="http://www.serif.com/" style="fill-rule:evenodd;clip-rule:evenodd;stroke-linejoin:round;stroke-miterlimit:2;">
    <path d="M336.5,0C334.369,0.68 332.388,1.015 330.862,1.842C327.311,3.769 324.376,5.41 320.688,9.125C317.003,12.836 276,80 276,80L192,80C130.25,80 80,130.25 80,192L80,688C80,702.125 86.25,714.688 96,723.5L96,752C96,778.438 117.562,800 144,800L208,800C234.438,800 256,778.438 256,752L256,736L544,736L544,752C544,778.438 565.562,800 592,800L656,800C682.438,800 704,778.438 704,752L704,723.5C713.75,714.688 720,702.125 720,688L720,192C720,130.25 669.75,80 608,80L524,80L557.5,24C560.625,18.688 560.438,12.062 557.062,7C553.625,1.875 547.562,-0.875 541.5,0C536.812,0.875 532.812,3.812 530.5,8L487.5,80L312.5,80L349.5,17C351.734,11.324 349.821,7.991 346.682,4.637C344.015,1.787 341.599,1.162 336.5,0ZM208,160L592,160C619.188,160 640,180.812 640,208L640,432C640,459.188 619.188,480 592,480L208,480C180.812,480 160,459.188 160,432L160,208C160,180.812 180.812,160 208,160ZM64,256C45.438,256 32,269.438 32,288L32,384C32,402.562 45.438,416 64,416L64,256ZM736,256L736,416C754.562,416 768,402.562 768,384L768,288C768,269.438 754.562,256 736,256ZM208,560C234.5,560 256,581.5 256,608C256,634.5 234.5,656 208,656C181.5,656 160,634.5 160,608C160,581.5 181.5,560 208,560ZM592,560C618.5,560 640,581.5 640,608C640,634.5 618.5,656 592,656C565.5,656 544,634.5 544,608C544,581.5 565.5,560 592,560Z" style="fill-rule:nonzero;"/>
</svg>
